@startuml DE_001

state c1 <<choice>>

[*] -> Inicializacion
Inicializacion --> Espera_De_Información : [El profesor elige la opción "Registrar Asistencia"]
Espera_De_Información --> Validando_Información : [El profesor elige la materia a registrar asistencia]
Validando_Información --> Esperando_Tarjeta : [Información valida]

Esperando_Tarjeta --> Validando_Tarjeta : [Los alumnos escanean su tarjeta de Mobilidad Integrada en la app FCA-SA]
Validando_Tarjeta --> c1
c1 --> Esperando_Tarjeta : [La información no valida]
c1 --> Actualizando_Asistencias : [La información es valida]
Actualizando_Asistencias --> Realizado : [La asistencia es tomada]
Realizado --> [*]


@enduml